PathFileType	4	(X/Y/Z)	C:/Users/beibeiliu/ov580/test_trc\sequence.12_training_dense_left.trc
DataRate	CameraRate	NumFrames	NumMarkers	Units	OrigDataRate	OrigDataStartFrame	OrigNumFrames
120	120	10	19	mm	120	122	324
Frame#	Time	ThumbCMC			ThumbMCP			ThumbIP			ThumbTip			IndexMCP			IndexPIP			IndexTip			MiddleMCP			MiddlePIP			MiddleTip			RingMCP			RingPIP			RingTip			PinkyMCP			PinkyPIP			PinkyTip			BackHand1			BackHand2			BackHand3	
		X0	Y0	Z0	X1	Y1	Z1	X2	Y2	Z2	X3	Y3	Z3	X4	Y4	Z4	X5	Y5	Z5	X6	Y6	Z6	X7	Y7	Z7	X8	Y8	Z8	X9	Y9	Z9	X10	Y10	Z10	X11	Y11	Z11	X12	Y12	Z12	X13	Y13	Z13	X14	Y14	Z14	X15	Y15	Z15	X16	Y16	Z16	X17	Y17	Z17	X18	Y18	Z18	
121	1.00833	-222.914	45.4223	6.44317	-215.447	50.7664	-17.2513	-212.832	65.9514	-34.8219	-207.785	80.7347	-51.3377	-280.005	69.534	-18.5646	-289.895	83.7118	-33.1732	-298.493	96.5698	-55.5921	-298.842	49.1113	-19.9838	-313.496	61.1478	-32.2001	-330.146	64.5324	-54.0794	-296.662	24.6396	-21.5665	-315.825	31.9602	-36.1229	-328.281	39.5494	-53.461	-288.997	0.958922	-25.2294	-302.412	-0.957087	-41.1292	-312.291	-0.55469	-58.092	-270.894	15.1019	5.48061	-253.645	1.87881	25.3383	-254.136	33.8602	21.584	
122	1.01667	-221.405	38.9444	6.51821	-214.599	49.9431	-19.7558	-207.292	65.8053	-37.459	-203.594	76.7184	-52.0225	-274.823	75.2093	-18.3441	-282.336	88.2416	-31.8693	-287.561	102.276	-49.7956	-294.665	54.0031	-17.2732	-311.375	67.8353	-31.6654	-326.231	77.8327	-53.2202	-298.515	31.6348	-20.4847	-316.331	40.2858	-33.7859	-327.079	46.8442	-49.1095	-295.63	5.59335	-25.9172	-305.286	6.89329	-38.4361	-316.104	11.474	-56.1276	-272.897	16.7515	5.65665	-255.685	5.23575	27.2366	-249.644	36.5445	20.5844	
123	1.025	-216.84	42.1158	3.78577	-210.163	50.367	-22.172	-206.131	61.5383	-39.1952	-196.921	70.676	-52.1122	-264.472	77.9884	-17.3005	-277.1	94.7238	-34.3895	-280.631	109.247	-54.2579	-289.23	60.9277	-17.0082	-308.266	72.4092	-31.4581	-320.349	85.8552	-50.1788	-291.946	38.7635	-18.2707	-312.917	48.1881	-32.6818	-325.323	58.5583	-48.4873	-292.088	13.0146	-22.352	-306.73	16.1256	-38.5053	-318.881	15.3501	-51.654	-268.782	18.1083	9.08367	-254.858	10.9532	25.6408	-248.24	34.2348	21.3692	
124	1.03333	-215.537	38.0264	3.03285	-208.609	44.1007	-21.9297	-199.105	58.7326	-39.2128	-193.461	65.6989	-53.4122	-260.566	77.4864	-18.8482	-269.125	94.2291	-33.5572	-273.029	110.186	-52.5984	-282.312	65.5862	-16.8069	-302.468	79.7975	-31.7706	-314.146	93.1659	-48.8285	-291.348	41.9545	-18.3801	-306.737	55.3807	-30.0836	-320.015	68.9437	-48.0504	-293.117	15.8402	-22.1095	-307.528	22.4778	-38.6617	-320.311	26.1212	-53.0645	-267.893	26.1628	8.09411	-254.923	9.49131	27.8315	-243.687	35.1244	19.327	
125	1.04167	-212.255	34.21	4.44877	-201.608	38.3763	-18.6904	-194.132	50.0884	-36.4747	-188.181	59.6273	-52.1121	-250.534	77.8769	-17.6493	-255.927	97.5801	-31.875	-261.651	113.23	-51.3075	-278.698	71.2299	-18.1173	-293.869	85.3327	-31.3961	-307.284	99.3781	-49.6509	-289.339	47.6494	-17.8954	-302.92	66.2424	-32.4006	-316.17	74.3915	-46.0524	-292.469	22.6987	-20.8958	-306.585	31.0402	-35.9327	-317.787	34.5442	-50.8456	-268.613	26.3276	8.6891	-256.586	13.8015	26.8762	-241.621	36.3105	19.2767	
126	1.05	-209.619	27.7421	4.16894	-202.199	31.298	-17.6834	-190.118	45.6363	-37.2707	-183.411	52.7345	-51.9409	-242.425	81.378	-19.005	-244.781	98.1993	-31.8716	-250.863	115.423	-51.5067	-269.887	68.9197	-15.6808	-279.35	90.1256	-27.2826	-292.046	106.291	-44.8718	-286.777	55.9846	-18.5423	-295.653	69.8141	-30.8264	-305.139	82.1083	-43.1903	-293.223	28.3929	-18.4491	-301.331	39.3113	-31.6635	-313.527	44.7537	-49.9784	-266.754	32.1968	10.0505	-254.308	11.4311	28.5301	-241.744	36.9373	19.443	
127	1.05833	-208.42	22.2377	5.76295	-195.884	25.0037	-17.469	-190.113	36.3255	-35.4543	-177.115	47.0374	-53.171	-235.58	78.1325	-18.939	-233.628	95.7075	-30.6996	-236.757	115.658	-48.5109	-260.047	76.8529	-16.6229	-270.918	95.0899	-28.8126	-282.651	112.774	-45.3052	-277.912	60.7833	-17.6969	-288.153	74.424	-29.4765	-294.504	93.4555	-44.0181	-291.227	35.5184	-18.085	-301.494	43.734	-31.5269	-308.89	55.0448	-48.8523	-260.849	31.2991	13.0492	-255.777	17.9245	28.9433	-238.97	36.2376	19.1733	
128	1.06667	-207.92	15.8785	6.33508	-195.546	18.794	-17.1892	-186.636	29.8675	-35.8274	-175.935	35.1227	-50.6621	-227.107	72.2888	-17.3717	-223.847	94.2971	-30.4938	-219.132	109.21	-43.7479	-253.818	76.8104	-16.6061	-258.799	97.9855	-26.6305	-270.231	115.022	-42.7236	-272.145	65.1004	-17.8674	-277.915	78.8233	-27.9884	-284.001	98.2233	-43.497	-283.794	41.6212	-16.9509	-296.591	51.9312	-31.9087	-301.972	65.0711	-49.7074	-259.404	34.3943	10.9872	-254.953	16.6307	31.2568	-231.634	32.4603	21.6369	
129	1.075	-206.868	11.1133	5.60421	-196.587	13.8293	-18.3484	-184.528	25.5361	-37.1639	-176.994	28.7473	-49.5811	-216.135	67.1629	-16.968	-211.824	91.9913	-30.4609	-207.703	106.28	-41.8424	-247.155	73.6427	-15.3083	-248.536	98.508	-26.9116	-256.55	118.246	-40.5382	-265.097	66.204	-17.7686	-270.434	83.6099	-28.137	-273.786	100.718	-42.1449	-282.257	46.2199	-16.6154	-288.191	59.3362	-31.4167	-294.929	72.9367	-46.9507	-255.673	35.5208	12.0164	-251.437	18.5318	30.7013	-227.42	31.7281	18.7172	
130	1.08333	-206.857	8.39113	4.30458	-193.263	11.0487	-19.3066	-182.671	17.9501	-37.1641	-171.055	21.9984	-50.8826	-208.89	62.9946	-17.1915	-204.658	86.7548	-28.6259	-199.329	105.173	-42.9385	-235.436	73.9334	-15.712	-238.245	96.4782	-25.177	-242.299	117.142	-39.6247	-257.997	63.666	-15.1472	-257.182	88.3016	-29.3775	-261.317	105.742	-42.4384	-274.965	51.9762	-18.582	-280.25	63.6666	-30.8576	-287.868	76.7324	-45.708	-253.712	39.5225	10.1322	-251.863	18.0741	27.8458	-225.774	27.3707	20.3439	
